<svg
   xmlns:svg="http://www.w3.org/2000/svg"
   xmlns="http://www.w3.org/2000/svg"
   version="1.1"
   width="100%"
   height="100%"
   viewBox='0 0 51.745213 55'>
  <path
     d="m 44.217466,1.1011078 c 0,5.6568543 -1.414214,7.0710677 -5.656854,8.4852817 l -0.707107,-0.707107 c 0.707107,0.707107 0.707107,2.1213195 0,2.8284265 L 14.518981,35.042233 C 11.690554,37.87066 7.4479131,33.628019 10.276341,30.799592 L 33.610864,7.4650689 c 0.707107,-0.7071068 0.707107,-0.7071068 2.828427,0 L 35.732185,6.7579621 C 36.47371,1.810891 40.324364,3.0449826 44.286304,1.2070402"
     fill="#4958B2" />
  <path
     d="m 13.811874,1.8082146 c 4.242641,-4.2426411 11.313709,2.8284271 7.071068,7.0710679 L 36.439291,24.435631 C 40.681932,20.19299 47.753,27.264058 43.510359,31.506699 40.681932,20.19299 27.95401,32.920912 39.267719,35.74934 35.025078,39.99198 27.95401,32.920912 32.196651,28.678272 L 16.640302,13.121923 C 12.397661,17.364563 5.3265927,10.293495 9.5692336,6.0508553 12.397661,17.364563 25.125583,4.6366417 13.811874,1.8082146 z"
     fill="#4958B2" />
  <path
     d="m 1.2662268,32.194774 c 2.8517226,-0.487824 3.494713,2.904364 3.4191584,3.291118 -0.075554,0.386753 -2.4434031,1.07123 -3.4191584,-3.291118 z"
     fill="#4958B2" />
  <path
     d="m 4.5001025,34.886037 c -0.010934,0.154509 -0.035078,0.312766 -0.035078,0.46875 0,6.494026 9.5679575,11.75 21.3628215,11.75 11.639108,0 21.04473,-5.12447 21.292665,-11.5 -1.095043,5.729541 -10.185979,10.21875 -21.257587,10.21875 -11.530647,0 -20.9250567,-4.867478 -21.362821,-10.9375 z"
     fill="#4958B2" />
  <path
     d="M 0.25,37.423666 C 2.2403307,35.323934 4.7882097,37.653888 4.9595402,38.008759 5.1308706,38.363628 3.6457347,40.330755 0.25,37.423666 z"
     fill="#4958B2" />
  <path
     d="M 2.2820165,42.294131 C 3.3864834,39.620099 6.6006756,40.88079 6.8879214,41.150563 7.1751655,41.420335 6.4946815,43.789334 2.2820165,42.294131 z"
     fill="#4958B2" />
  <path
     d="m 6.4463115,46.619681 c -0.1779218,-2.88767 3.2637781,-3.161661 3.6401495,-3.044901 0.376368,0.11676 0.801902,2.544544 -3.6401495,3.044901 z"
     fill="#4958B2" />
  <path
     d="m 11.780272,49.124162 c -0.644635,-2.820414 2.706846,-3.649841 3.097184,-3.59577 0.390336,0.05407 1.204591,2.380486 -3.097184,3.59577 z"
     fill="#4958B2" />
  <path
     d="M 6.746741,39.17254 C 9.5961536,38.671404 9.0590906,35.260843 8.8576926,34.92213 8.6562966,34.583418 6.1962511,34.736423 6.746741,39.17254 z"
     fill="#4958B2" />
  <path
     d="M 9.4207776,41.405575 C 12.308535,41.582056 12.580807,38.140219 12.46386,37.763907 12.346916,37.387595 9.9189156,36.963274 9.4207776,41.405575 z"
     fill="#4958B2" />
  <path
     d="m 13.069913,43.245946 c 2.890152,-0.131563 2.794924,-3.582839 2.638629,-3.944583 -0.156293,-0.361745 -2.615646,-0.525502 -2.638629,3.944583 z"
     fill="#4958B2" />
  <path
     d="m 17.59079,44.979716 c 2.786954,-0.776642 1.919827,-4.118568 1.686356,-4.436023 -0.233469,-0.317457 -2.666865,0.07474 -1.686356,4.436023 z"
     fill="#4958B2" />
  <path
     d="m 18.490941,51.307627 c -1.63636,-2.38592 1.175502,-4.389367 1.558384,-4.482583 0.382879,-0.09321 1.995373,1.770943 -1.558384,4.482583 z"
     fill="#4958B2" />
  <path
     d="m 23.685999,40.613776 c -2.620002,1.22714 -1.211785,4.379489 -0.928998,4.65393 0.282785,0.274443 2.617726,-0.515042 0.928998,-4.65393 z"
     fill="#4958B2" />
  <path
     d="m 26.120378,51.856652 c -2.627955,-1.210017 -1.240342,-4.371488 -0.959351,-4.647769 0.28099,-0.27628 2.621031,0.497949 0.959351,4.647769 z"
     fill="#4958B2" />
  <path
     d="m 50.478987,32.194774 c -2.851723,-0.487824 -3.494713,2.904364 -3.419159,3.291118 0.07555,0.386753 2.443404,1.07123 3.419159,-3.291118 z"
     fill="#4958B2" />
  <path
     d="m 51.495214,37.423666 c -1.990331,-2.099732 -4.53821,0.230222 -4.709541,0.585093 -0.17133,0.354869 1.313806,2.321996 4.709541,-0.585093 z"
     fill="#4958B2" />
  <path
     d="m 49.463197,42.294131 c -1.104467,-2.674032 -4.318659,-1.413341 -4.605905,-1.143568 -0.287244,0.269772 0.39324,2.638771 4.605905,1.143568 z"
     fill="#4958B2" />
  <path
     d="m 45.298902,46.619681 c 0.177922,-2.88767 -3.263778,-3.161661 -3.640149,-3.044901 -0.376368,0.11676 -0.801902,2.544544 3.640149,3.044901 z"
     fill="#4958B2" />
  <path
     d="m 40.388671,49.124162 c 0.644635,-2.820414 -2.706846,-3.649841 -3.097184,-3.59577 -0.390336,0.05407 -1.204591,2.380486 3.097184,3.59577 z"
     fill="#4958B2" />
  <path
     d="m 44.998473,39.17254 c -2.849413,-0.501136 -2.31235,-3.911697 -2.110952,-4.25041 0.201396,-0.338712 2.661442,-0.185707 2.110952,4.25041 z"
     fill="#4958B2" />
  <path
     d="m 42.324436,41.405575 c -2.887757,0.176481 -3.160029,-3.265356 -3.043082,-3.641668 0.116944,-0.376312 2.544944,-0.800633 3.043082,3.641668 z"
     fill="#4958B2" />
  <path
     d="m 38.675301,43.245946 c -2.890152,-0.131563 -2.794924,-3.582839 -2.638629,-3.944583 0.156293,-0.361745 2.615646,-0.525502 2.638629,3.944583 z"
     fill="#4958B2" />
  <path
     d="m 34.154424,44.979716 c -2.786954,-0.776642 -1.919827,-4.118568 -1.686356,-4.436023 0.233469,-0.317457 2.666865,0.07474 1.686356,4.436023 z"
     fill="#4958B2" />
  <path
     d="m 33.60901,50.607213 c 0.644635,-2.820414 -2.706846,-3.649841 -3.097184,-3.59577 -0.390336,0.05407 -1.204591,2.380486 3.097184,3.59577 z"
     fill="#4958B2" />
  <path
     d="m 27.934437,40.812478 c 2.573049,1.322763 1.049734,4.421132 0.757035,4.684976 -0.292697,0.263847 -2.59699,-0.611063 -0.757035,-4.684976 z"
     fill="#4958B2" />
</svg>
