<svg width="36px" height="36px" viewBox="0 0 36 36" version="1.1" xmlns="http://www.w3.org/2000/svg">
    <g fill="#4958B2">
        <path d="M28.5519032,0.537389316 C28.5519032,3.91399836 27.7077507,4.75815051 25.1752944,5.60230303 L24.7532181,5.18022677 C25.1752944,5.60230303 25.1752944,6.44645465 24.7532181,6.86853091 L10.8247058,20.7970432 C9.13640138,22.4853476 6.60394449,19.9528907 8.29224946,18.2645863 L22.2207612,4.3360745 C22.6428374,3.91399836 22.6428374,3.91399836 23.9090656,4.3360745 L23.4869899,3.91399836 C23.9296105,0.961063013 26.2280881,1.69769942 28.592993,0.600620978"></path>
        <path d="M10.4026296,0.959465454 C12.9350865,-1.57299155 17.1558479,2.64776995 14.6233909,5.18022677 L23.9090656,14.4659011 C26.4415225,11.9334442 30.6622839,16.1542056 28.129827,18.6866625 C26.4415225,11.9334442 18.8441523,19.5308144 25.5973706,21.2191195 C23.0649137,23.7515758 18.8441523,19.5308144 21.3766093,16.9983581 L12.0909346,7.71268342 C9.55847764,10.2451398 5.33771608,6.02437839 7.87017297,3.49192222 C9.55847764,10.2451398 17.1558479,2.64776995 10.4026296,0.959465454 L10.4026296,0.959465454 Z"></path>
        <g transform="translate(0.000000, 22.000000)">
            <path d="M0.876618554,0.288689692 C2.85088805,-0.0490346154 3.29603525,2.29940323 3.24372822,2.567156 C3.1914216,2.83490808 1.55214145,3.30877677 0.876618554,0.288689692 L0.876618554,0.288689692 Z"></path>
            <path d="M3.11545558,2.15187177 C3.10788588,2.25883954 3.09117081,2.36840208 3.09117081,2.476391 C3.09117081,6.97225515 9.71514138,10.6110064 17.8808165,10.6110064 C25.9386605,10.6110064 32.4502449,7.06329638 32.6218922,2.64946792 C31.8637855,6.61607323 25.5700606,9.72398715 17.9051012,9.72398715 C9.92234562,9.72398715 3.41852352,6.35419469 3.11545592,2.15187177 L3.11545558,2.15187177 Z"></path>
            <path d="M0.173076923,3.90869185 C1.55099818,2.45503123 3.31491441,4.06807631 3.43352783,4.31375623 C3.55214118,4.55943477 2.52397018,5.92129192 0.173076923,3.90869185 L0.173076923,3.90869185 Z"></path>
            <path d="M1.57985758,7.28055223 C2.34448851,5.42929931 4.56969849,6.30208538 4.76856097,6.48885131 C4.96742227,6.67561654 4.49631796,8.31569277 1.57985758,7.28055223 L1.57985758,7.28055223 Z"></path>
            <path d="M4.46283104,10.2751638 C4.33965441,8.27600762 6.72236972,8.08632154 6.98293454,8.16715538 C7.243497,8.24798923 7.53809746,9.92876277 4.46283104,10.2751638 L4.46283104,10.2751638 Z"></path>
            <path d="M8.15557292,12.0090352 C7.70928715,10.0564409 10.0295432,9.48222223 10.2997772,9.519656 C10.5700098,9.55708908 11.1337248,11.1676848 8.15557292,12.0090352 L8.15557292,12.0090352 Z"></path>
            <path d="M4.67082069,5.11945077 C6.64349095,4.77251046 6.27167811,2.41135285 6.13224872,2.17685923 C5.99282072,1.94236631 4.2897123,2.04829285 4.67082069,5.11945077 L4.67082069,5.11945077 Z"></path>
            <path d="M6.5220768,6.66539808 C8.52129346,6.78757723 8.70978946,4.404767 8.62882615,4.14424331 C8.54786492,3.88371962 6.86694157,3.58995892 6.5220768,6.66539808 L6.5220768,6.66539808 Z"></path>
            <path d="M9.04840131,7.93950108 C11.0492758,7.848419 10.9833487,5.45907408 10.8751445,5.20863592 C10.7669416,4.95819708 9.06431262,4.84482685 9.04840131,7.93950108 L9.04840131,7.93950108 Z"></path>
            <path d="M12.1782392,9.13980338 C14.1076689,8.60212815 13.5073502,6.28848708 13.3457165,6.06871054 C13.1840841,5.84893262 11.4994253,6.12045362 12.1782392,9.13980338 L12.1782392,9.13980338 Z"></path>
            <path d="M12.8014207,13.5206648 C11.6685561,11.8688741 13.6152298,10.4818723 13.8803019,10.4173382 C14.145372,10.3528082 15.261714,11.6433756 12.8014207,13.5206648 L12.8014207,13.5206648 Z"></path>
            <path d="M16.3979993,6.11722954 C14.5841518,6.966788 15.5590712,9.14918346 15.7548468,9.33918108 C15.9506211,9.52918008 17.5671187,8.98261354 16.3979993,6.11722954 L16.3979993,6.11722954 Z"></path>
            <path d="M18.0833386,13.9007591 C16.2639852,13.063055 17.2246403,10.8743443 17.4191725,10.6830728 C17.6137041,10.4918021 19.2337325,11.0278068 18.0833386,13.9007591 L18.0833386,13.9007591 Z"></path>
            <path d="M34.946991,0.288689692 C32.9727212,-0.0490346154 32.5275743,2.29940323 32.5798809,2.567156 C32.6321848,2.83490808 34.2714683,3.30877677 34.946991,0.288689692 L34.946991,0.288689692 Z"></path>
            <path d="M35.6505328,3.90869185 C34.2726113,2.45503123 32.5086951,4.06807631 32.3900813,4.31375623 C32.2714682,4.55943477 33.2996393,5.92129192 35.6505328,3.90869185 L35.6505328,3.90869185 Z"></path>
            <path d="M34.2437518,7.28055223 C33.4791208,5.42929931 31.2539109,6.30208538 31.0550483,6.48885131 C30.8561871,6.67561654 31.3272914,8.31569277 34.2437518,7.28055223 L34.2437518,7.28055223 Z"></path>
            <path d="M31.3607783,10.2751638 C31.4839551,8.27600762 29.1012397,8.08632154 28.8406752,8.16715538 C28.5801127,8.24798923 28.2855122,9.92876277 31.3607783,10.2751638 L31.3607783,10.2751638 Z"></path>
            <path d="M27.9613876,12.0090352 C28.4076734,10.0564409 26.0874173,9.48222223 25.8171833,9.519656 C25.5469507,9.55708908 24.9832357,11.1676848 27.9613876,12.0090352 L27.9613876,12.0090352 Z"></path>
            <path d="M31.152789,5.11945077 C29.1801185,4.77251046 29.5519313,2.41135285 29.6913607,2.17685923 C29.8307887,1.94236631 31.5338975,2.04829285 31.152789,5.11945077 L31.152789,5.11945077 Z"></path>
            <path d="M29.3015326,6.66539808 C27.3023162,6.78757723 27.1138202,4.404767 27.1947835,4.14424331 C27.2757448,3.88371962 28.9566678,3.58995892 29.3015326,6.66539808 L29.3015326,6.66539808 Z"></path>
            <path d="M26.7752084,7.93950108 C24.7743339,7.848419 24.840261,5.45907408 24.9484652,5.20863592 C25.0566681,4.95819708 26.7592971,4.84482685 26.7752084,7.93950108 L26.7752084,7.93950108 Z"></path>
            <path d="M23.6453705,9.13980338 C21.7159408,8.60212815 22.3162595,6.28848708 22.4778932,6.06871054 C22.6395256,5.84893262 24.3241844,6.12045362 23.6453705,9.13980338 L23.6453705,9.13980338 Z"></path>
            <path d="M23.2677762,13.0357628 C23.7140619,11.0831685 21.3938058,10.5089498 21.1235718,10.5463836 C20.8533392,10.5838167 20.2896242,12.1944124 23.2677762,13.0357628 L23.2677762,13.0357628 Z"></path>
            <path d="M19.3392256,6.25479246 C21.1205672,7.17055146 20.0659645,9.31557615 19.8633268,9.49823738 C19.6606904,9.68090069 18.0654106,9.07519377 19.3392256,6.25479246 L19.3392256,6.25479246 Z"></path>
        </g>
    </g>
</svg>